<?xml version="1.0" encoding="UTF-8"?>
<svg width="54px" height="20px" viewBox="0 0 54 20" version="1.1" xmlns="http://www.w3.org/2000/svg" xmlns:xlink="http://www.w3.org/1999/xlink">
    <title>img_launch_placeholder</title>
    <g id="Design" stroke="none" stroke-width="1" fill="none" fill-rule="evenodd">
        <g id="Dashboard" transform="translate(-40.000000, -30.000000)" fill="#FF00FF">
            <g id="img_launch_placeholder" transform="translate(40.000000, 30.000000)">
                <path d="M48.7370714,7.94594595 L46.1859339,7.51351351 C44.4320268,7.18918919 43.687945,6.7027027 43.687945,5.78378378 C43.687945,4.81081081 44.5914729,4.21621622 46.0264878,4.21621622 C47.5146514,4.21621622 48.630774,4.91891892 48.6839227,6.10810811 L53.6799004,6.10810811 C53.6799004,2.37837838 50.8630194,0 45.9201904,0 C41.5088484,0 38.2667777,2.48648649 38.2667777,6.37837838 C38.2667777,9.40540541 40.1269822,11.4594595 43.5284989,12.0540541 L45.9733391,12.4864865 C47.9929896,12.8648649 48.630774,13.2432432 48.630774,14.1621622 C48.630774,15.0810811 47.6209488,15.7837838 45.9733391,15.7837838 C44.4851755,15.7837838 43.2096067,15.0810811 43.0501606,13.9459459 L37.8947368,13.9459459 C37.8947368,17.7837838 40.871064,20 45.8670417,20 C50.8098707,20 53.9987926,17.4594595 53.9987926,13.5135135 C54.0519413,10.3783784 52.351183,8.59459459 48.7370714,7.94594595 Z" id="Path"></path>
                <path d="M30.7378843,7.94594595 L28.1865555,7.51351351 C26.4325169,7.18918919 25.6883794,6.7027027 25.6883794,5.78378378 C25.6883794,4.81081081 26.591975,4.21621622 28.0270974,4.21621622 C29.5153726,4.21621622 30.6315789,4.91891892 30.6847316,6.10810811 L35.6810839,6.10810811 C35.6810839,2.37837838 32.8639917,0 27.9207921,0 C23.5091193,0 20.2668056,2.48648649 20.2668056,6.37837838 C20.2668056,9.40540541 22.1271496,11.4594595 25.5289213,12.0540541 L27.9739448,12.4864865 C29.9937467,12.8648649 30.6315789,13.2432432 30.6315789,14.1621622 C30.6315789,15.0810811 29.621678,15.7837838 27.9739448,15.7837838 C26.4856696,15.7837838 25.2100052,15.0810811 25.0505472,13.9459459 L19.8947368,13.9459459 C19.8947368,17.7837838 22.8712871,20 27.8676394,20 C32.810839,20 36,17.4594595 36,13.5135135 C36,10.3783784 34.2991141,8.59459459 30.7378843,7.94594595 Z" id="Path"></path>
                <path d="M13.5570783,0 L6.33765855,0 L0,19.047619 L5.84166788,19.047619 L6.83364922,15.2380952 L12.7855373,15.2380952 L13.7775186,19.047619 L19.8947368,19.047619 L13.5570783,0 Z M7.88074063,11.3197279 L9.75448316,4.40816327 L9.86470331,4.40816327 L11.7384458,11.3197279 L7.88074063,11.3197279 Z" id="Shape"></path>
            </g>
        </g>
    </g>
</svg>